<?xml version="1.0" encoding="UTF-8" standalone="no"?>
<!DOCTYPE svg PUBLIC "-//W3C//DTD SVG 1.1//EN" "http://www.w3.org/Graphics/SVG/1.1/DTD/svg11.dtd">
<svg width="100%" height="100%" viewBox="0 0 256 64" version="1.1" xmlns="http://www.w3.org/2000/svg" xmlns:xlink="http://www.w3.org/1999/xlink" xml:space="preserve" xmlns:serif="http://www.serif.com/" style="fill-rule:evenodd;clip-rule:evenodd;stroke-linejoin:round;stroke-miterlimit:2;">
    <g id="Mesa-de-trabajo1" serif:id="Mesa de trabajo1" transform="matrix(1,0,0,0.5,0,0)">
        <rect x="0" y="0" width="256" height="128" style="fill:none;"/>
        <clipPath id="_clip1">
            <rect x="0" y="0" width="256" height="128"/>
        </clipPath>
        <g clip-path="url(#_clip1)">
            <g transform="matrix(1,0,0,2,-239.44,42.5349)">
                <g transform="matrix(0.373882,0,0,0.373882,239.296,-16)">
                    <path d="M132.712,141.711C135.91,141.711 140.607,141.291 142.955,140.651L142.955,135.315C133.351,134.246 125.876,126.56 120.759,113.968L72.949,0L63.345,0L0.385,140.861L11.488,140.861L28.987,102.016L85.751,102.016L90.668,113.968C100.912,138.303 118.621,141.711 132.712,141.711ZM33.464,92.412L58.229,36.707L81.704,92.412L33.464,92.412Z" style="fill:white;fill-rule:nonzero;"/>
                </g>
                <g transform="matrix(0.373882,0,0,0.373882,239.296,-16)">
                    <path d="M187.117,143C228.741,143 243.682,119.515 243.682,79.4L243.682,0L233.009,0L233.009,79.4C233.009,116.747 220.417,133.396 191.395,133.396C168.979,133.396 157.666,115.467 157.456,85.796L157.246,27.743C157.246,6.616 152.969,0 138.038,0L114.553,0L114.553,6.406L116.482,6.406C127.575,7.255 129.494,15.58 129.494,27.743L129.494,79.4C129.494,121.863 148.702,143 187.117,143Z" style="fill:white;fill-rule:nonzero;"/>
                </g>
                <g transform="matrix(0.373882,0,0,0.373882,239.296,-16)">
                    <path d="M259.252,140.861L305.773,140.861C359.559,140.861 388.371,111.62 388.371,69.576C388.371,26.253 358.709,-0 300.226,-0L242.173,-0L242.173,6.406L244.311,6.406C257.113,6.406 259.252,14.941 259.252,27.743L259.252,140.861ZM305.133,132.327C298.307,132.327 296.169,132.537 286.995,130.828L286.995,10.034C295.319,8.754 298.517,8.535 304.703,8.535C335.444,8.535 356.361,32.869 356.361,70.436C356.361,108.851 334.805,132.327 305.133,132.327Z" style="fill:white;fill-rule:nonzero;"/>
                </g>
                <g transform="matrix(0.373882,0,0,0.373882,239.296,-16)">
                    <path d="M418.282,140.861L443.896,140.861L443.896,134.455L441.757,134.455C428.955,134.455 426.817,125.921 426.817,113.119L426.817,0L399.074,0L399.074,113.119C399.074,134.675 403.341,140.861 418.282,140.861Z" style="fill:white;fill-rule:nonzero;"/>
                </g>
                <g transform="matrix(0.373882,0,0,0.373882,239.296,-16)">
                    <path d="M604.735,8.375L622.004,8.395C631.498,8.405 639.263,16.18 639.253,25.684L639.193,87.345L604.685,52.777L604.735,8.375Z" style="fill:white;"/>
                </g>
                <g transform="matrix(0.373882,0,0,0.373882,239.296,-16)">
                    <path d="M683.605,70.126L683.595,87.395L639.193,87.345L604.685,52.777L666.356,52.837C675.86,52.857 683.615,60.632 683.605,70.126Z" style="fill:white;"/>
                </g>
                <g transform="matrix(0.373882,0,0,0.373882,239.296,-16)">
                    <path d="M639.143,131.747L621.874,131.737C612.38,131.727 604.615,123.942 604.625,114.448L604.685,52.777L639.183,87.345L639.143,131.747Z" style="fill:white;"/>
                </g>
                <g transform="matrix(0.373882,0,0,0.373882,239.296,-16)">
                    <path d="M560.263,69.996L560.283,52.727L604.685,52.777L639.183,87.345L577.512,87.285C568.018,87.275 560.253,79.5 560.263,69.996Z" style="fill:white;"/>
                </g>
                <g transform="matrix(0.373882,0,0,0.373882,239.296,-16)">
                    <path d="M482.871,140.861L510.614,140.861L510.614,9.604L555.226,9.604L555.226,-0L454.919,-0C440.188,-0 436.77,8.535 436.77,17.069L436.77,35.218L443.176,35.218C443.176,16.22 452.57,9.604 467.721,9.604L482.871,9.604L482.871,140.861Z" style="fill:white;fill-rule:nonzero;"/>
                </g>
            </g>
        </g>
    </g>
    <g id="Capa_x0020_1">
    </g>
</svg>
