<?xml version="1.0" encoding="UTF-8"?>
<!DOCTYPE svg PUBLIC "-//W3C//DTD SVG 1.0//EN" "http://www.w3.org/TR/2001/REC-SVG-20010904/DTD/svg10.dtd">
<!-- Creator: CorelDRAW 2020 (64-Bit) -->
<svg xmlns="http://www.w3.org/2000/svg" xml:space="preserve" width="684px" height="143px" version="1.0" style="shape-rendering:geometricPrecision; text-rendering:geometricPrecision; image-rendering:optimizeQuality; fill-rule:evenodd; clip-rule:evenodd"
viewBox="0 0 683.66 143.09"
 xmlns:xlink="http://www.w3.org/1999/xlink"
 xmlns:xodm="http://www.corel.com/coreldraw/odm/2003">
 <defs>
  <style type="text/css">
   <![CDATA[
    .fil3 {fill:#183C8F}
    .fil4 {fill:#3E92CC}
    .fil0 {fill:#183C8F;fill-rule:nonzero}
    .fil1 {fill:#3E92CC;fill-rule:nonzero}
    .fil2 {fill:#3E92CC;fill-rule:nonzero}
   ]]>
  </style>
 </defs>
 <g id="Capa_x0020_1">
  <metadata id="CorelCorpID_0Corel-Layer"/>
  <path class="fil0" d="M132.41 141.8c3.2,0 7.9,-0.42 10.25,-1.06l0 -5.34c-9.61,-1.07 -17.09,-8.76 -22.21,-21.36l-47.84 -114.04 -9.61 0 -63 140.95 11.11 0 17.51 -38.87 56.8 0 4.92 11.96c10.25,24.35 27.97,27.76 42.07,27.76zm-99.31 -49.33l24.78 -55.74 23.49 55.74 -48.27 0z"/>
  <path class="fil1" d="M186.85 143.09c41.65,0 56.6,-23.5 56.6,-63.64l0 -79.45 -10.68 0 0 79.45c0,37.37 -12.6,54.03 -41.64,54.03 -22.43,0 -33.75,-17.94 -33.96,-47.63l-0.21 -58.09c0,-21.14 -4.28,-27.76 -19.22,-27.76l-23.5 0 0 6.41 1.93 0c11.1,0.85 13.02,9.18 13.02,21.35l0 51.69c0,42.49 19.22,63.64 57.66,63.64z"/>
  <path class="fil1" d="M259.03 140.95l46.55 0c53.82,0 82.65,-29.26 82.65,-71.33 0,-43.35 -29.68,-69.62 -88.2,-69.62l-58.09 0 0 6.41 2.14 0c12.81,0 14.95,8.54 14.95,21.35l0 113.19zm45.91 -8.54c-6.83,0 -8.97,0.21 -18.15,-1.5l0 -120.87c8.33,-1.28 11.53,-1.5 17.72,-1.5 30.76,0 51.69,24.35 51.69,61.94 0,38.44 -21.57,61.93 -51.26,61.93z"/>
  <path class="fil2" d="M418.16 140.95l25.63 0 0 -6.41 -2.14 0c-12.81,0 -14.95,-8.54 -14.95,-21.35l0 -113.19 -27.76 0 0 113.19c0,21.57 4.27,27.76 19.22,27.76z"/>
  <path class="fil3" d="M604.73 8.38l17.28 0.02c9.5,0.01 17.27,7.79 17.26,17.3l-0.06 61.7 -34.53 -34.59 0.05 -44.43z"/>
  <path class="fil3" d="M683.65 70.17l-0.01 17.28 -44.43 -0.05 -34.53 -34.59 61.71 0.06c9.51,0.02 17.27,7.8 17.26,17.3z"/>
  <path class="fil4" d="M639.16 131.83l-17.28 -0.01c-9.5,-0.01 -17.27,-7.8 -17.26,-17.3l0.06 -61.71 34.52 34.59 -0.04 44.43z"/>
  <path class="fil4" d="M560.23 70.04l0.02 -17.28 44.43 0.05 34.52 34.59 -61.71 -0.06c-9.5,-0.01 -17.27,-7.79 -17.26,-17.3z"/>
  <path class="fil0" d="M482.79 140.95l27.76 0 0 -131.34 44.64 0 0 -9.61 -100.37 0c-14.74,0 -18.16,8.54 -18.16,17.08l0 18.16 6.41 0c0,-19.01 9.4,-25.63 24.56,-25.63l15.16 0 0 131.34z"/>
 </g>
</svg>
